<mxfile host="app.diagrams.net" modified="2023-10-25T15:32:58.122Z" agent="Mozilla/5.0 (Windows NT 10.0; Win64; x64) AppleWebKit/537.36 (KHTML, like Gecko) Chrome/118.0.0.0 Safari/537.36" etag="c9WL7KDWyE99farCNlP2" version="22.0.8" type="device">
  <diagram name="Page-1" id="qwSCz1KcpdRjvBXS_Fbc">
    <mxGraphModel dx="1050" dy="613" grid="1" gridSize="10" guides="1" tooltips="1" connect="1" arrows="1" fold="1" page="1" pageScale="1" pageWidth="1500" pageHeight="2000" math="0" shadow="0">
      <root>
        <mxCell id="0" />
        <mxCell id="1" parent="0" />
        <mxCell id="N_i-8s8QBQsX-NKkGKJv-1" value="VRABOTEN" style="rounded=0;whiteSpace=wrap;html=1;" vertex="1" parent="1">
          <mxGeometry x="690" y="160" width="120" height="60" as="geometry" />
        </mxCell>
        <mxCell id="N_i-8s8QBQsX-NKkGKJv-8" style="rounded=0;orthogonalLoop=1;jettySize=auto;html=1;exitX=1;exitY=1;exitDx=0;exitDy=0;entryX=0;entryY=0.5;entryDx=0;entryDy=0;endArrow=none;endFill=0;" edge="1" parent="1" source="N_i-8s8QBQsX-NKkGKJv-2" target="N_i-8s8QBQsX-NKkGKJv-1">
          <mxGeometry relative="1" as="geometry" />
        </mxCell>
        <mxCell id="N_i-8s8QBQsX-NKkGKJv-2" value="Ime" style="ellipse;whiteSpace=wrap;html=1;" vertex="1" parent="1">
          <mxGeometry x="500" y="60" width="70" height="40" as="geometry" />
        </mxCell>
        <mxCell id="N_i-8s8QBQsX-NKkGKJv-3" value="prezime" style="ellipse;whiteSpace=wrap;html=1;" vertex="1" parent="1">
          <mxGeometry x="630" y="70" width="70" height="40" as="geometry" />
        </mxCell>
        <mxCell id="N_i-8s8QBQsX-NKkGKJv-9" value="" style="rounded=0;orthogonalLoop=1;jettySize=auto;html=1;endArrow=none;endFill=0;" edge="1" parent="1" source="N_i-8s8QBQsX-NKkGKJv-5" target="N_i-8s8QBQsX-NKkGKJv-1">
          <mxGeometry relative="1" as="geometry" />
        </mxCell>
        <mxCell id="N_i-8s8QBQsX-NKkGKJv-5" value="&lt;u&gt;embg&lt;/u&gt;" style="ellipse;whiteSpace=wrap;html=1;" vertex="1" parent="1">
          <mxGeometry x="730" y="60" width="70" height="40" as="geometry" />
        </mxCell>
        <mxCell id="N_i-8s8QBQsX-NKkGKJv-6" value="obrazovanie" style="ellipse;whiteSpace=wrap;html=1;" vertex="1" parent="1">
          <mxGeometry x="830" y="60" width="70" height="40" as="geometry" />
        </mxCell>
        <mxCell id="N_i-8s8QBQsX-NKkGKJv-12" style="rounded=0;orthogonalLoop=1;jettySize=auto;html=1;exitX=0;exitY=1;exitDx=0;exitDy=0;entryX=1;entryY=0;entryDx=0;entryDy=0;endArrow=none;endFill=0;" edge="1" parent="1" source="N_i-8s8QBQsX-NKkGKJv-7" target="N_i-8s8QBQsX-NKkGKJv-1">
          <mxGeometry relative="1" as="geometry" />
        </mxCell>
        <mxCell id="N_i-8s8QBQsX-NKkGKJv-7" value="vrabotuvanje" style="ellipse;whiteSpace=wrap;html=1;" vertex="1" parent="1">
          <mxGeometry x="950" y="80" width="70" height="40" as="geometry" />
        </mxCell>
        <mxCell id="N_i-8s8QBQsX-NKkGKJv-10" style="rounded=0;orthogonalLoop=1;jettySize=auto;html=1;exitX=1;exitY=1;exitDx=0;exitDy=0;entryX=0.173;entryY=-0.03;entryDx=0;entryDy=0;entryPerimeter=0;endArrow=none;endFill=0;" edge="1" parent="1" source="N_i-8s8QBQsX-NKkGKJv-3" target="N_i-8s8QBQsX-NKkGKJv-1">
          <mxGeometry relative="1" as="geometry" />
        </mxCell>
        <mxCell id="N_i-8s8QBQsX-NKkGKJv-11" style="rounded=0;orthogonalLoop=1;jettySize=auto;html=1;exitX=0;exitY=1;exitDx=0;exitDy=0;entryX=0.893;entryY=0.05;entryDx=0;entryDy=0;entryPerimeter=0;endArrow=none;endFill=0;" edge="1" parent="1" source="N_i-8s8QBQsX-NKkGKJv-6" target="N_i-8s8QBQsX-NKkGKJv-1">
          <mxGeometry relative="1" as="geometry" />
        </mxCell>
        <mxCell id="N_i-8s8QBQsX-NKkGKJv-13" value="INZINER" style="rounded=0;whiteSpace=wrap;html=1;" vertex="1" parent="1">
          <mxGeometry x="490" y="330" width="140" height="40" as="geometry" />
        </mxCell>
        <mxCell id="N_i-8s8QBQsX-NKkGKJv-17" style="rounded=0;orthogonalLoop=1;jettySize=auto;html=1;exitX=0.25;exitY=0;exitDx=0;exitDy=0;entryX=1;entryY=1;entryDx=0;entryDy=0;endArrow=none;endFill=0;" edge="1" parent="1" source="N_i-8s8QBQsX-NKkGKJv-14" target="N_i-8s8QBQsX-NKkGKJv-15">
          <mxGeometry relative="1" as="geometry" />
        </mxCell>
        <mxCell id="N_i-8s8QBQsX-NKkGKJv-14" value="KOMERCIALIST" style="rounded=0;whiteSpace=wrap;html=1;" vertex="1" parent="1">
          <mxGeometry x="700" y="330" width="140" height="40" as="geometry" />
        </mxCell>
        <mxCell id="N_i-8s8QBQsX-NKkGKJv-15" value="d" style="ellipse;whiteSpace=wrap;html=1;aspect=fixed;" vertex="1" parent="1">
          <mxGeometry x="645" y="260" width="40" height="40" as="geometry" />
        </mxCell>
        <mxCell id="N_i-8s8QBQsX-NKkGKJv-16" style="rounded=0;orthogonalLoop=1;jettySize=auto;html=1;exitX=0.5;exitY=0;exitDx=0;exitDy=0;entryX=0.12;entryY=1.023;entryDx=0;entryDy=0;entryPerimeter=0;endArrow=none;endFill=0;shape=link;" edge="1" parent="1" source="N_i-8s8QBQsX-NKkGKJv-15" target="N_i-8s8QBQsX-NKkGKJv-1">
          <mxGeometry relative="1" as="geometry" />
        </mxCell>
        <mxCell id="N_i-8s8QBQsX-NKkGKJv-18" style="rounded=0;orthogonalLoop=1;jettySize=auto;html=1;exitX=0.75;exitY=0;exitDx=0;exitDy=0;entryX=0;entryY=1;entryDx=0;entryDy=0;endArrow=none;endFill=0;" edge="1" parent="1" source="N_i-8s8QBQsX-NKkGKJv-13" target="N_i-8s8QBQsX-NKkGKJv-15">
          <mxGeometry relative="1" as="geometry" />
        </mxCell>
        <mxCell id="N_i-8s8QBQsX-NKkGKJv-20" value="" style="edgeStyle=orthogonalEdgeStyle;rounded=0;orthogonalLoop=1;jettySize=auto;html=1;endArrow=none;endFill=0;" edge="1" parent="1" source="N_i-8s8QBQsX-NKkGKJv-19" target="N_i-8s8QBQsX-NKkGKJv-13">
          <mxGeometry relative="1" as="geometry" />
        </mxCell>
        <mxCell id="N_i-8s8QBQsX-NKkGKJv-19" value="kursevi" style="ellipse;shape=doubleEllipse;whiteSpace=wrap;html=1;" vertex="1" parent="1">
          <mxGeometry x="350" y="330" width="90" height="40" as="geometry" />
        </mxCell>
        <mxCell id="N_i-8s8QBQsX-NKkGKJv-22" value="" style="edgeStyle=orthogonalEdgeStyle;rounded=0;orthogonalLoop=1;jettySize=auto;html=1;endArrow=none;endFill=0;" edge="1" parent="1" source="N_i-8s8QBQsX-NKkGKJv-21" target="N_i-8s8QBQsX-NKkGKJv-14">
          <mxGeometry relative="1" as="geometry" />
        </mxCell>
        <mxCell id="N_i-8s8QBQsX-NKkGKJv-21" value="jazici" style="ellipse;shape=doubleEllipse;whiteSpace=wrap;html=1;" vertex="1" parent="1">
          <mxGeometry x="800" y="240" width="90" height="40" as="geometry" />
        </mxCell>
        <mxCell id="N_i-8s8QBQsX-NKkGKJv-32" style="rounded=0;orthogonalLoop=1;jettySize=auto;html=1;exitX=0;exitY=0;exitDx=0;exitDy=0;entryX=0.75;entryY=1;entryDx=0;entryDy=0;endArrow=none;endFill=0;" edge="1" parent="1" source="N_i-8s8QBQsX-NKkGKJv-23" target="N_i-8s8QBQsX-NKkGKJv-13">
          <mxGeometry relative="1" as="geometry" />
        </mxCell>
        <mxCell id="N_i-8s8QBQsX-NKkGKJv-34" style="edgeStyle=orthogonalEdgeStyle;rounded=0;orthogonalLoop=1;jettySize=auto;html=1;exitX=1;exitY=0.5;exitDx=0;exitDy=0;entryX=0.5;entryY=1;entryDx=0;entryDy=0;endArrow=none;endFill=0;shape=link;" edge="1" parent="1" source="N_i-8s8QBQsX-NKkGKJv-23" target="N_i-8s8QBQsX-NKkGKJv-33">
          <mxGeometry relative="1" as="geometry" />
        </mxCell>
        <mxCell id="N_i-8s8QBQsX-NKkGKJv-92" style="edgeStyle=orthogonalEdgeStyle;rounded=0;orthogonalLoop=1;jettySize=auto;html=1;exitX=0.75;exitY=1;exitDx=0;exitDy=0;entryX=0.5;entryY=1;entryDx=0;entryDy=0;endArrow=none;endFill=0;" edge="1" parent="1" source="N_i-8s8QBQsX-NKkGKJv-23" target="N_i-8s8QBQsX-NKkGKJv-91">
          <mxGeometry relative="1" as="geometry" />
        </mxCell>
        <mxCell id="N_i-8s8QBQsX-NKkGKJv-23" value="MENAGERI" style="rounded=0;whiteSpace=wrap;html=1;" vertex="1" parent="1">
          <mxGeometry x="820" y="460" width="130" height="30" as="geometry" />
        </mxCell>
        <mxCell id="N_i-8s8QBQsX-NKkGKJv-24" value="" style="shape=requiredInterface;html=1;verticalLabelPosition=bottom;sketch=0;direction=south;rotation=45;" vertex="1" parent="1">
          <mxGeometry x="610" y="310" width="20" height="15" as="geometry" />
        </mxCell>
        <mxCell id="N_i-8s8QBQsX-NKkGKJv-27" value="" style="shape=requiredInterface;html=1;verticalLabelPosition=bottom;sketch=0;direction=south;rotation=-30;" vertex="1" parent="1">
          <mxGeometry x="700" y="310" width="20" height="15" as="geometry" />
        </mxCell>
        <mxCell id="N_i-8s8QBQsX-NKkGKJv-31" style="rounded=0;orthogonalLoop=1;jettySize=auto;html=1;exitX=0.25;exitY=0;exitDx=0;exitDy=0;entryX=0.574;entryY=1.005;entryDx=0;entryDy=0;entryPerimeter=0;endArrow=none;endFill=0;" edge="1" parent="1" source="N_i-8s8QBQsX-NKkGKJv-23" target="N_i-8s8QBQsX-NKkGKJv-14">
          <mxGeometry relative="1" as="geometry" />
        </mxCell>
        <mxCell id="N_i-8s8QBQsX-NKkGKJv-35" style="edgeStyle=orthogonalEdgeStyle;rounded=0;orthogonalLoop=1;jettySize=auto;html=1;exitX=0;exitY=0;exitDx=0;exitDy=0;entryX=1;entryY=0.75;entryDx=0;entryDy=0;endArrow=none;endFill=0;" edge="1" parent="1" source="N_i-8s8QBQsX-NKkGKJv-33" target="N_i-8s8QBQsX-NKkGKJv-1">
          <mxGeometry relative="1" as="geometry" />
        </mxCell>
        <mxCell id="N_i-8s8QBQsX-NKkGKJv-33" value="" style="rhombus;whiteSpace=wrap;html=1;" vertex="1" parent="1">
          <mxGeometry x="1030" y="260" width="40" height="40" as="geometry" />
        </mxCell>
        <mxCell id="N_i-8s8QBQsX-NKkGKJv-36" value="N" style="text;html=1;align=center;verticalAlign=middle;resizable=0;points=[];autosize=1;strokeColor=none;fillColor=none;" vertex="1" parent="1">
          <mxGeometry x="805" y="198" width="30" height="30" as="geometry" />
        </mxCell>
        <mxCell id="N_i-8s8QBQsX-NKkGKJv-37" value="1" style="text;html=1;align=center;verticalAlign=middle;resizable=0;points=[];autosize=1;strokeColor=none;fillColor=none;" vertex="1" parent="1">
          <mxGeometry x="950" y="478" width="30" height="30" as="geometry" />
        </mxCell>
        <mxCell id="N_i-8s8QBQsX-NKkGKJv-38" value="d" style="ellipse;whiteSpace=wrap;html=1;aspect=fixed;" vertex="1" parent="1">
          <mxGeometry x="450" y="460" width="35" height="35" as="geometry" />
        </mxCell>
        <mxCell id="N_i-8s8QBQsX-NKkGKJv-39" style="edgeStyle=orthogonalEdgeStyle;rounded=0;orthogonalLoop=1;jettySize=auto;html=1;exitX=0.5;exitY=0;exitDx=0;exitDy=0;entryX=0.16;entryY=1.045;entryDx=0;entryDy=0;entryPerimeter=0;shape=link;" edge="1" parent="1" source="N_i-8s8QBQsX-NKkGKJv-38" target="N_i-8s8QBQsX-NKkGKJv-13">
          <mxGeometry relative="1" as="geometry" />
        </mxCell>
        <mxCell id="N_i-8s8QBQsX-NKkGKJv-41" style="edgeStyle=orthogonalEdgeStyle;rounded=0;orthogonalLoop=1;jettySize=auto;html=1;exitX=0.75;exitY=0;exitDx=0;exitDy=0;entryX=0;entryY=1;entryDx=0;entryDy=0;endArrow=none;endFill=0;" edge="1" parent="1" source="N_i-8s8QBQsX-NKkGKJv-40" target="N_i-8s8QBQsX-NKkGKJv-38">
          <mxGeometry relative="1" as="geometry" />
        </mxCell>
        <mxCell id="N_i-8s8QBQsX-NKkGKJv-40" value="PROGRAMER" style="rounded=0;whiteSpace=wrap;html=1;" vertex="1" parent="1">
          <mxGeometry x="250" y="550" width="140" height="40" as="geometry" />
        </mxCell>
        <mxCell id="N_i-8s8QBQsX-NKkGKJv-43" style="edgeStyle=orthogonalEdgeStyle;rounded=0;orthogonalLoop=1;jettySize=auto;html=1;exitX=0.25;exitY=0;exitDx=0;exitDy=0;entryX=1;entryY=1;entryDx=0;entryDy=0;endArrow=none;endFill=0;" edge="1" parent="1" source="N_i-8s8QBQsX-NKkGKJv-42" target="N_i-8s8QBQsX-NKkGKJv-38">
          <mxGeometry relative="1" as="geometry" />
        </mxCell>
        <mxCell id="N_i-8s8QBQsX-NKkGKJv-42" value="ADMINISTRATOR" style="rounded=0;whiteSpace=wrap;html=1;" vertex="1" parent="1">
          <mxGeometry x="510" y="570" width="140" height="40" as="geometry" />
        </mxCell>
        <mxCell id="N_i-8s8QBQsX-NKkGKJv-44" value="O" style="ellipse;whiteSpace=wrap;html=1;aspect=fixed;" vertex="1" parent="1">
          <mxGeometry x="600" y="640" width="35" height="35" as="geometry" />
        </mxCell>
        <mxCell id="N_i-8s8QBQsX-NKkGKJv-45" style="rounded=0;orthogonalLoop=1;jettySize=auto;html=1;exitX=0;exitY=0;exitDx=0;exitDy=0;entryX=0.611;entryY=1.065;entryDx=0;entryDy=0;entryPerimeter=0;endArrow=none;endFill=0;shape=link;" edge="1" parent="1" source="N_i-8s8QBQsX-NKkGKJv-44" target="N_i-8s8QBQsX-NKkGKJv-42">
          <mxGeometry relative="1" as="geometry" />
        </mxCell>
        <mxCell id="N_i-8s8QBQsX-NKkGKJv-48" style="edgeStyle=orthogonalEdgeStyle;rounded=0;orthogonalLoop=1;jettySize=auto;html=1;exitX=0.75;exitY=0;exitDx=0;exitDy=0;entryX=0;entryY=1;entryDx=0;entryDy=0;endArrow=none;endFill=0;" edge="1" parent="1" source="N_i-8s8QBQsX-NKkGKJv-46" target="N_i-8s8QBQsX-NKkGKJv-44">
          <mxGeometry relative="1" as="geometry" />
        </mxCell>
        <mxCell id="N_i-8s8QBQsX-NKkGKJv-46" value="SISTEM&lt;br&gt;ADMINISTRATOR" style="rounded=0;whiteSpace=wrap;html=1;" vertex="1" parent="1">
          <mxGeometry x="410" y="720" width="140" height="40" as="geometry" />
        </mxCell>
        <mxCell id="N_i-8s8QBQsX-NKkGKJv-49" style="edgeStyle=orthogonalEdgeStyle;rounded=0;orthogonalLoop=1;jettySize=auto;html=1;exitX=0.25;exitY=0;exitDx=0;exitDy=0;entryX=1;entryY=1;entryDx=0;entryDy=0;endArrow=none;endFill=0;" edge="1" parent="1" source="N_i-8s8QBQsX-NKkGKJv-47" target="N_i-8s8QBQsX-NKkGKJv-44">
          <mxGeometry relative="1" as="geometry" />
        </mxCell>
        <mxCell id="N_i-8s8QBQsX-NKkGKJv-47" value="MREZEN&lt;br&gt;ADMINISTRATOR" style="rounded=0;whiteSpace=wrap;html=1;" vertex="1" parent="1">
          <mxGeometry x="685" y="720" width="140" height="40" as="geometry" />
        </mxCell>
        <mxCell id="N_i-8s8QBQsX-NKkGKJv-50" value="" style="shape=requiredInterface;html=1;verticalLabelPosition=bottom;sketch=0;rotation=90;" vertex="1" parent="1">
          <mxGeometry x="350" y="520" width="10" height="40" as="geometry" />
        </mxCell>
        <mxCell id="N_i-8s8QBQsX-NKkGKJv-51" value="" style="shape=requiredInterface;html=1;verticalLabelPosition=bottom;sketch=0;rotation=90;" vertex="1" parent="1">
          <mxGeometry x="550" y="530" width="10" height="40" as="geometry" />
        </mxCell>
        <mxCell id="N_i-8s8QBQsX-NKkGKJv-53" value="" style="shape=requiredInterface;html=1;verticalLabelPosition=bottom;sketch=0;rotation=90;" vertex="1" parent="1">
          <mxGeometry x="510" y="690" width="10" height="40" as="geometry" />
        </mxCell>
        <mxCell id="N_i-8s8QBQsX-NKkGKJv-54" value="" style="shape=requiredInterface;html=1;verticalLabelPosition=bottom;sketch=0;rotation=90;" vertex="1" parent="1">
          <mxGeometry x="720" y="690" width="10" height="40" as="geometry" />
        </mxCell>
        <mxCell id="N_i-8s8QBQsX-NKkGKJv-55" value="O.S" style="ellipse;shape=doubleEllipse;whiteSpace=wrap;html=1;" vertex="1" parent="1">
          <mxGeometry x="400" y="660" width="70" height="30" as="geometry" />
        </mxCell>
        <mxCell id="N_i-8s8QBQsX-NKkGKJv-56" style="edgeStyle=orthogonalEdgeStyle;rounded=0;orthogonalLoop=1;jettySize=auto;html=1;exitX=0.5;exitY=1;exitDx=0;exitDy=0;entryX=0.189;entryY=-0.045;entryDx=0;entryDy=0;entryPerimeter=0;endArrow=none;endFill=0;" edge="1" parent="1" source="N_i-8s8QBQsX-NKkGKJv-55" target="N_i-8s8QBQsX-NKkGKJv-46">
          <mxGeometry relative="1" as="geometry" />
        </mxCell>
        <mxCell id="N_i-8s8QBQsX-NKkGKJv-58" value="" style="rounded=0;orthogonalLoop=1;jettySize=auto;html=1;endArrow=none;endFill=0;" edge="1" parent="1" source="N_i-8s8QBQsX-NKkGKJv-57" target="N_i-8s8QBQsX-NKkGKJv-47">
          <mxGeometry relative="1" as="geometry" />
        </mxCell>
        <mxCell id="N_i-8s8QBQsX-NKkGKJv-57" value="rabotno&lt;br&gt;iskustvo" style="ellipse;whiteSpace=wrap;html=1;" vertex="1" parent="1">
          <mxGeometry x="750" y="618" width="70" height="32" as="geometry" />
        </mxCell>
        <mxCell id="N_i-8s8QBQsX-NKkGKJv-59" value="TEHNOLOGIJA" style="rounded=0;whiteSpace=wrap;html=1;" vertex="1" parent="1">
          <mxGeometry x="160" y="730" width="110" height="45" as="geometry" />
        </mxCell>
        <mxCell id="N_i-8s8QBQsX-NKkGKJv-61" style="rounded=0;orthogonalLoop=1;jettySize=auto;html=1;entryX=0;entryY=0.5;entryDx=0;entryDy=0;endArrow=none;endFill=0;shape=link;" edge="1" parent="1" source="N_i-8s8QBQsX-NKkGKJv-60" target="N_i-8s8QBQsX-NKkGKJv-40">
          <mxGeometry relative="1" as="geometry" />
        </mxCell>
        <mxCell id="N_i-8s8QBQsX-NKkGKJv-62" value="" style="rounded=0;orthogonalLoop=1;jettySize=auto;html=1;endArrow=none;endFill=0;shape=link;" edge="1" parent="1" source="N_i-8s8QBQsX-NKkGKJv-60" target="N_i-8s8QBQsX-NKkGKJv-59">
          <mxGeometry relative="1" as="geometry" />
        </mxCell>
        <mxCell id="N_i-8s8QBQsX-NKkGKJv-60" value="" style="rhombus;whiteSpace=wrap;html=1;" vertex="1" parent="1">
          <mxGeometry x="190" y="648" width="40" height="42" as="geometry" />
        </mxCell>
        <mxCell id="N_i-8s8QBQsX-NKkGKJv-63" value="N" style="text;html=1;align=center;verticalAlign=middle;resizable=0;points=[];autosize=1;strokeColor=none;fillColor=none;" vertex="1" parent="1">
          <mxGeometry x="210" y="700" width="30" height="30" as="geometry" />
        </mxCell>
        <mxCell id="N_i-8s8QBQsX-NKkGKJv-64" value="M" style="text;html=1;align=center;verticalAlign=middle;resizable=0;points=[];autosize=1;strokeColor=none;fillColor=none;" vertex="1" parent="1">
          <mxGeometry x="205" y="578" width="30" height="30" as="geometry" />
        </mxCell>
        <mxCell id="N_i-8s8QBQsX-NKkGKJv-67" style="rounded=0;orthogonalLoop=1;jettySize=auto;html=1;exitX=1;exitY=1;exitDx=0;exitDy=0;entryX=0;entryY=0.5;entryDx=0;entryDy=0;endArrow=none;endFill=0;" edge="1" parent="1" source="N_i-8s8QBQsX-NKkGKJv-65" target="N_i-8s8QBQsX-NKkGKJv-60">
          <mxGeometry relative="1" as="geometry" />
        </mxCell>
        <mxCell id="N_i-8s8QBQsX-NKkGKJv-65" value="funkcionalnosti" style="ellipse;shape=doubleEllipse;whiteSpace=wrap;html=1;" vertex="1" parent="1">
          <mxGeometry x="30" y="710" width="80" height="40" as="geometry" />
        </mxCell>
        <mxCell id="N_i-8s8QBQsX-NKkGKJv-69" style="edgeStyle=orthogonalEdgeStyle;rounded=0;orthogonalLoop=1;jettySize=auto;html=1;entryX=0;entryY=0.5;entryDx=0;entryDy=0;endArrow=none;endFill=0;" edge="1" parent="1" source="N_i-8s8QBQsX-NKkGKJv-68" target="N_i-8s8QBQsX-NKkGKJv-60">
          <mxGeometry relative="1" as="geometry" />
        </mxCell>
        <mxCell id="N_i-8s8QBQsX-NKkGKJv-68" value="stepen" style="ellipse;whiteSpace=wrap;html=1;" vertex="1" parent="1">
          <mxGeometry x="40" y="630" width="60" height="45" as="geometry" />
        </mxCell>
        <mxCell id="N_i-8s8QBQsX-NKkGKJv-71" style="rounded=0;orthogonalLoop=1;jettySize=auto;html=1;exitX=0.5;exitY=0;exitDx=0;exitDy=0;entryX=0;entryY=0.5;entryDx=0;entryDy=0;endArrow=none;endFill=0;" edge="1" parent="1" source="N_i-8s8QBQsX-NKkGKJv-70" target="N_i-8s8QBQsX-NKkGKJv-59">
          <mxGeometry relative="1" as="geometry" />
        </mxCell>
        <mxCell id="N_i-8s8QBQsX-NKkGKJv-70" value="ime" style="ellipse;whiteSpace=wrap;html=1;" vertex="1" parent="1">
          <mxGeometry x="50" y="830" width="60" height="45" as="geometry" />
        </mxCell>
        <mxCell id="N_i-8s8QBQsX-NKkGKJv-99" style="rounded=0;orthogonalLoop=1;jettySize=auto;html=1;exitX=0.25;exitY=0;exitDx=0;exitDy=0;entryX=1;entryY=0.5;entryDx=0;entryDy=0;endArrow=none;endFill=0;shape=link;" edge="1" parent="1" source="N_i-8s8QBQsX-NKkGKJv-72" target="N_i-8s8QBQsX-NKkGKJv-97">
          <mxGeometry relative="1" as="geometry" />
        </mxCell>
        <mxCell id="N_i-8s8QBQsX-NKkGKJv-72" value="RABOTILNICA" style="rounded=0;whiteSpace=wrap;html=1;" vertex="1" parent="1">
          <mxGeometry x="1260" y="325" width="100" height="40" as="geometry" />
        </mxCell>
        <mxCell id="N_i-8s8QBQsX-NKkGKJv-76" style="edgeStyle=orthogonalEdgeStyle;rounded=0;orthogonalLoop=1;jettySize=auto;html=1;exitX=0.5;exitY=1;exitDx=0;exitDy=0;entryX=0.75;entryY=0;entryDx=0;entryDy=0;endArrow=none;endFill=0;" edge="1" parent="1" source="N_i-8s8QBQsX-NKkGKJv-73" target="N_i-8s8QBQsX-NKkGKJv-72">
          <mxGeometry relative="1" as="geometry" />
        </mxCell>
        <mxCell id="N_i-8s8QBQsX-NKkGKJv-73" value="Ime" style="ellipse;whiteSpace=wrap;html=1;" vertex="1" parent="1">
          <mxGeometry x="1270" y="188" width="70" height="40" as="geometry" />
        </mxCell>
        <mxCell id="N_i-8s8QBQsX-NKkGKJv-75" style="edgeStyle=orthogonalEdgeStyle;rounded=0;orthogonalLoop=1;jettySize=auto;html=1;exitX=0;exitY=1;exitDx=0;exitDy=0;entryX=1;entryY=0.25;entryDx=0;entryDy=0;endArrow=none;endFill=0;" edge="1" parent="1" source="N_i-8s8QBQsX-NKkGKJv-74" target="N_i-8s8QBQsX-NKkGKJv-72">
          <mxGeometry relative="1" as="geometry" />
        </mxCell>
        <mxCell id="N_i-8s8QBQsX-NKkGKJv-74" value="temi" style="ellipse;shape=doubleEllipse;whiteSpace=wrap;html=1;" vertex="1" parent="1">
          <mxGeometry x="1390" y="280" width="90" height="40" as="geometry" />
        </mxCell>
        <mxCell id="N_i-8s8QBQsX-NKkGKJv-80" value="" style="rounded=0;orthogonalLoop=1;jettySize=auto;html=1;endArrow=none;endFill=0;shape=link;" edge="1" parent="1" source="N_i-8s8QBQsX-NKkGKJv-77" target="N_i-8s8QBQsX-NKkGKJv-78">
          <mxGeometry relative="1" as="geometry" />
        </mxCell>
        <mxCell id="N_i-8s8QBQsX-NKkGKJv-77" value="ODRZUVAWE NA&amp;nbsp;&lt;br&gt;RABOTILNICA" style="rounded=0;whiteSpace=wrap;html=1;" vertex="1" parent="1">
          <mxGeometry x="1255" y="455" width="100" height="40" as="geometry" />
        </mxCell>
        <mxCell id="N_i-8s8QBQsX-NKkGKJv-79" value="" style="edgeStyle=orthogonalEdgeStyle;rounded=0;orthogonalLoop=1;jettySize=auto;html=1;endArrow=none;endFill=0;" edge="1" parent="1" source="N_i-8s8QBQsX-NKkGKJv-78" target="N_i-8s8QBQsX-NKkGKJv-72">
          <mxGeometry relative="1" as="geometry" />
        </mxCell>
        <mxCell id="N_i-8s8QBQsX-NKkGKJv-78" value="" style="rhombus;whiteSpace=wrap;html=1;" vertex="1" parent="1">
          <mxGeometry x="1285" y="390" width="40" height="40" as="geometry" />
        </mxCell>
        <mxCell id="N_i-8s8QBQsX-NKkGKJv-81" value="1" style="text;html=1;align=center;verticalAlign=middle;resizable=0;points=[];autosize=1;strokeColor=none;fillColor=none;" vertex="1" parent="1">
          <mxGeometry x="1305" y="368" width="30" height="30" as="geometry" />
        </mxCell>
        <mxCell id="N_i-8s8QBQsX-NKkGKJv-82" value="N" style="text;html=1;align=center;verticalAlign=middle;resizable=0;points=[];autosize=1;strokeColor=none;fillColor=none;" vertex="1" parent="1">
          <mxGeometry x="1305" y="418" width="30" height="30" as="geometry" />
        </mxCell>
        <mxCell id="N_i-8s8QBQsX-NKkGKJv-84" value="" style="edgeStyle=orthogonalEdgeStyle;rounded=0;orthogonalLoop=1;jettySize=auto;html=1;endArrow=none;endFill=0;" edge="1" parent="1" source="N_i-8s8QBQsX-NKkGKJv-83" target="N_i-8s8QBQsX-NKkGKJv-77">
          <mxGeometry relative="1" as="geometry" />
        </mxCell>
        <mxCell id="N_i-8s8QBQsX-NKkGKJv-83" value="godina" style="ellipse;whiteSpace=wrap;html=1;" vertex="1" parent="1">
          <mxGeometry x="1410" y="470" width="70" height="40" as="geometry" />
        </mxCell>
        <mxCell id="N_i-8s8QBQsX-NKkGKJv-86" style="rounded=0;orthogonalLoop=1;jettySize=auto;html=1;exitX=0;exitY=0.5;exitDx=0;exitDy=0;entryX=1;entryY=0.5;entryDx=0;entryDy=0;endArrow=none;endFill=0;" edge="1" parent="1" source="N_i-8s8QBQsX-NKkGKJv-85" target="N_i-8s8QBQsX-NKkGKJv-14">
          <mxGeometry relative="1" as="geometry" />
        </mxCell>
        <mxCell id="N_i-8s8QBQsX-NKkGKJv-87" style="rounded=0;orthogonalLoop=1;jettySize=auto;html=1;exitX=1;exitY=0.5;exitDx=0;exitDy=0;entryX=0;entryY=0.5;entryDx=0;entryDy=0;endArrow=none;endFill=0;shape=link;" edge="1" parent="1" source="N_i-8s8QBQsX-NKkGKJv-85" target="N_i-8s8QBQsX-NKkGKJv-72">
          <mxGeometry relative="1" as="geometry" />
        </mxCell>
        <mxCell id="N_i-8s8QBQsX-NKkGKJv-85" value="" style="rhombus;whiteSpace=wrap;html=1;" vertex="1" parent="1">
          <mxGeometry x="1110" y="328" width="40" height="40" as="geometry" />
        </mxCell>
        <mxCell id="N_i-8s8QBQsX-NKkGKJv-88" value="ucestvuva" style="text;html=1;align=center;verticalAlign=middle;resizable=0;points=[];autosize=1;strokeColor=none;fillColor=none;" vertex="1" parent="1">
          <mxGeometry x="1110" y="120" width="80" height="30" as="geometry" />
        </mxCell>
        <mxCell id="N_i-8s8QBQsX-NKkGKJv-89" value="N" style="text;html=1;align=center;verticalAlign=middle;resizable=0;points=[];autosize=1;strokeColor=none;fillColor=none;" vertex="1" parent="1">
          <mxGeometry x="845" y="318" width="30" height="30" as="geometry" />
        </mxCell>
        <mxCell id="N_i-8s8QBQsX-NKkGKJv-90" value="M" style="text;html=1;align=center;verticalAlign=middle;resizable=0;points=[];autosize=1;strokeColor=none;fillColor=none;" vertex="1" parent="1">
          <mxGeometry x="1215" y="318" width="30" height="30" as="geometry" />
        </mxCell>
        <mxCell id="N_i-8s8QBQsX-NKkGKJv-93" style="rounded=0;orthogonalLoop=1;jettySize=auto;html=1;exitX=0.5;exitY=0;exitDx=0;exitDy=0;entryX=0;entryY=0.75;entryDx=0;entryDy=0;endArrow=none;endFill=0;" edge="1" parent="1" source="N_i-8s8QBQsX-NKkGKJv-91" target="N_i-8s8QBQsX-NKkGKJv-77">
          <mxGeometry relative="1" as="geometry" />
        </mxCell>
        <mxCell id="N_i-8s8QBQsX-NKkGKJv-91" value="" style="rhombus;whiteSpace=wrap;html=1;" vertex="1" parent="1">
          <mxGeometry x="1100" y="490" width="40" height="40" as="geometry" />
        </mxCell>
        <mxCell id="N_i-8s8QBQsX-NKkGKJv-94" value="N" style="text;html=1;align=center;verticalAlign=middle;resizable=0;points=[];autosize=1;strokeColor=none;fillColor=none;" vertex="1" parent="1">
          <mxGeometry x="1225" y="455" width="30" height="30" as="geometry" />
        </mxCell>
        <mxCell id="N_i-8s8QBQsX-NKkGKJv-95" value="M" style="text;html=1;align=center;verticalAlign=middle;resizable=0;points=[];autosize=1;strokeColor=none;fillColor=none;" vertex="1" parent="1">
          <mxGeometry x="890" y="495" width="30" height="30" as="geometry" />
        </mxCell>
        <mxCell id="N_i-8s8QBQsX-NKkGKJv-96" value="predava" style="text;html=1;align=center;verticalAlign=middle;resizable=0;points=[];autosize=1;strokeColor=none;fillColor=none;" vertex="1" parent="1">
          <mxGeometry x="1140" y="495" width="70" height="30" as="geometry" />
        </mxCell>
        <mxCell id="N_i-8s8QBQsX-NKkGKJv-98" style="rounded=0;orthogonalLoop=1;jettySize=auto;html=1;exitX=0;exitY=0.5;exitDx=0;exitDy=0;endArrow=none;endFill=0;" edge="1" parent="1" source="N_i-8s8QBQsX-NKkGKJv-97" target="N_i-8s8QBQsX-NKkGKJv-1">
          <mxGeometry relative="1" as="geometry" />
        </mxCell>
        <mxCell id="N_i-8s8QBQsX-NKkGKJv-97" value="" style="rhombus;whiteSpace=wrap;html=1;" vertex="1" parent="1">
          <mxGeometry x="1130" y="158" width="40" height="40" as="geometry" />
        </mxCell>
        <mxCell id="N_i-8s8QBQsX-NKkGKJv-100" value="N" style="text;html=1;align=center;verticalAlign=middle;resizable=0;points=[];autosize=1;strokeColor=none;fillColor=none;" vertex="1" parent="1">
          <mxGeometry x="835" y="158" width="30" height="30" as="geometry" />
        </mxCell>
        <mxCell id="N_i-8s8QBQsX-NKkGKJv-101" value="M" style="text;html=1;align=center;verticalAlign=middle;resizable=0;points=[];autosize=1;strokeColor=none;fillColor=none;" vertex="1" parent="1">
          <mxGeometry x="1235" y="288" width="30" height="30" as="geometry" />
        </mxCell>
      </root>
    </mxGraphModel>
  </diagram>
</mxfile>
